<mxfile host="Electron" modified="2023-06-15T15:24:43.316Z" agent="Mozilla/5.0 (Windows NT 10.0; Win64; x64) AppleWebKit/537.36 (KHTML, like Gecko) draw.io/21.4.0 Chrome/112.0.5615.204 Electron/24.5.1 Safari/537.36" etag="SXLvcsrNnNTEtZCoELAZ" version="21.4.0" type="device">
  <diagram name="Page-1" id="oL0eZGH5eensEGQ6-rVe">
    <mxGraphModel dx="686" dy="396" grid="1" gridSize="10" guides="1" tooltips="1" connect="1" arrows="1" fold="1" page="1" pageScale="1" pageWidth="827" pageHeight="1169" math="0" shadow="0">
      <root>
        <mxCell id="0" />
        <mxCell id="1" parent="0" />
        <mxCell id="VjrMN6myHZ9YJszXmR57-312" value="" style="rounded=0;whiteSpace=wrap;html=1;fillColor=#7EA6E0;strokeColor=#7EA6E0;movable=1;resizable=1;rotatable=1;deletable=1;editable=1;locked=0;connectable=1;rotation=0;" vertex="1" parent="1">
          <mxGeometry x="100" y="390" width="60" height="28" as="geometry" />
        </mxCell>
        <mxCell id="VjrMN6myHZ9YJszXmR57-325" value="" style="rounded=0;whiteSpace=wrap;html=1;fillColor=#7EA6E0;strokeColor=#7EA6E0;movable=1;resizable=1;rotatable=1;deletable=1;editable=1;locked=0;connectable=1;rotation=0;" vertex="1" parent="1">
          <mxGeometry x="100" y="472" width="60" height="28" as="geometry" />
        </mxCell>
        <mxCell id="VjrMN6myHZ9YJszXmR57-327" value="" style="rounded=0;whiteSpace=wrap;html=1;fillColor=#7EA6E0;strokeColor=#7EA6E0;movable=1;resizable=1;rotatable=1;deletable=1;editable=1;locked=0;connectable=1;rotation=0;" vertex="1" parent="1">
          <mxGeometry x="99.99564434701784" y="389.99923788646686" width="60" height="28" as="geometry" />
        </mxCell>
        <mxCell id="VjrMN6myHZ9YJszXmR57-328" style="edgeStyle=orthogonalEdgeStyle;shape=connector;rounded=0;orthogonalLoop=1;jettySize=auto;html=1;exitX=0;exitY=0.75;exitDx=0;exitDy=0;entryX=1;entryY=0.25;entryDx=0;entryDy=0;labelBackgroundColor=default;strokeColor=#7EA6E0;strokeWidth=3;fontFamily=Helvetica;fontSize=11;fontColor=default;endArrow=none;endFill=0;" edge="1" parent="1" source="VjrMN6myHZ9YJszXmR57-332" target="VjrMN6myHZ9YJszXmR57-333">
          <mxGeometry relative="1" as="geometry" />
        </mxCell>
        <mxCell id="VjrMN6myHZ9YJszXmR57-386" style="edgeStyle=orthogonalEdgeStyle;shape=connector;rounded=0;orthogonalLoop=1;jettySize=auto;html=1;exitX=1;exitY=0.75;exitDx=0;exitDy=0;entryX=0;entryY=0.25;entryDx=0;entryDy=0;labelBackgroundColor=default;strokeColor=#7EA6E0;strokeWidth=3;fontFamily=Helvetica;fontSize=11;fontColor=default;endArrow=none;endFill=0;" edge="1" parent="1" source="VjrMN6myHZ9YJszXmR57-332" target="VjrMN6myHZ9YJszXmR57-382">
          <mxGeometry relative="1" as="geometry" />
        </mxCell>
        <mxCell id="VjrMN6myHZ9YJszXmR57-332" value="" style="rounded=0;whiteSpace=wrap;html=1;fillColor=#7EA6E0;strokeColor=#7EA6E0;movable=1;resizable=1;rotatable=1;deletable=1;editable=1;locked=0;connectable=1;rotation=0;" vertex="1" parent="1">
          <mxGeometry x="209.9956443470178" y="349.99923788646686" width="60" height="28" as="geometry" />
        </mxCell>
        <mxCell id="VjrMN6myHZ9YJszXmR57-333" value="" style="rounded=0;whiteSpace=wrap;html=1;fillColor=#7EA6E0;strokeColor=#7EA6E0;movable=1;resizable=1;rotatable=1;deletable=1;editable=1;locked=0;connectable=1;rotation=0;" vertex="1" parent="1">
          <mxGeometry x="99.99564434701784" y="389.99923788646686" width="60" height="28" as="geometry" />
        </mxCell>
        <mxCell id="VjrMN6myHZ9YJszXmR57-337" style="edgeStyle=orthogonalEdgeStyle;shape=connector;rounded=0;orthogonalLoop=1;jettySize=auto;html=1;exitX=0;exitY=0.75;exitDx=0;exitDy=0;entryX=1;entryY=0.25;entryDx=0;entryDy=0;labelBackgroundColor=default;strokeColor=#7EA6E0;strokeWidth=3;fontFamily=Helvetica;fontSize=11;fontColor=default;endArrow=none;endFill=0;" edge="1" parent="1" source="VjrMN6myHZ9YJszXmR57-341" target="VjrMN6myHZ9YJszXmR57-342">
          <mxGeometry relative="1" as="geometry" />
        </mxCell>
        <mxCell id="VjrMN6myHZ9YJszXmR57-338" style="edgeStyle=orthogonalEdgeStyle;shape=connector;rounded=0;orthogonalLoop=1;jettySize=auto;html=1;exitX=0;exitY=0.25;exitDx=0;exitDy=0;entryX=1;entryY=0.75;entryDx=0;entryDy=0;labelBackgroundColor=default;strokeColor=#7EA6E0;strokeWidth=3;fontFamily=Helvetica;fontSize=11;fontColor=default;endArrow=none;endFill=0;" edge="1" parent="1" source="VjrMN6myHZ9YJszXmR57-341" target="VjrMN6myHZ9YJszXmR57-344">
          <mxGeometry relative="1" as="geometry" />
        </mxCell>
        <mxCell id="VjrMN6myHZ9YJszXmR57-383" style="edgeStyle=orthogonalEdgeStyle;shape=connector;rounded=0;orthogonalLoop=1;jettySize=auto;html=1;exitX=1;exitY=0.25;exitDx=0;exitDy=0;entryX=0;entryY=0.75;entryDx=0;entryDy=0;labelBackgroundColor=default;strokeColor=#7EA6E0;strokeWidth=3;fontFamily=Helvetica;fontSize=11;fontColor=default;endArrow=none;endFill=0;" edge="1" parent="1" source="VjrMN6myHZ9YJszXmR57-341" target="VjrMN6myHZ9YJszXmR57-382">
          <mxGeometry relative="1" as="geometry" />
        </mxCell>
        <mxCell id="VjrMN6myHZ9YJszXmR57-384" style="edgeStyle=orthogonalEdgeStyle;shape=connector;rounded=0;orthogonalLoop=1;jettySize=auto;html=1;exitX=1;exitY=0.75;exitDx=0;exitDy=0;entryX=0;entryY=0.25;entryDx=0;entryDy=0;labelBackgroundColor=default;strokeColor=#7EA6E0;strokeWidth=3;fontFamily=Helvetica;fontSize=11;fontColor=default;endArrow=none;endFill=0;" edge="1" parent="1" source="VjrMN6myHZ9YJszXmR57-341" target="VjrMN6myHZ9YJszXmR57-381">
          <mxGeometry relative="1" as="geometry" />
        </mxCell>
        <mxCell id="VjrMN6myHZ9YJszXmR57-341" value="" style="rounded=0;whiteSpace=wrap;html=1;fillColor=#7EA6E0;strokeColor=#7EA6E0;movable=1;resizable=1;rotatable=1;deletable=1;editable=1;locked=0;connectable=1;rotation=0;" vertex="1" parent="1">
          <mxGeometry x="209.9956443470178" y="431.99923788646686" width="60" height="28" as="geometry" />
        </mxCell>
        <mxCell id="VjrMN6myHZ9YJszXmR57-385" style="edgeStyle=orthogonalEdgeStyle;shape=connector;rounded=0;orthogonalLoop=1;jettySize=auto;html=1;exitX=1;exitY=0.75;exitDx=0;exitDy=0;entryX=0;entryY=0.75;entryDx=0;entryDy=0;labelBackgroundColor=default;strokeColor=#7EA6E0;strokeWidth=3;fontFamily=Helvetica;fontSize=11;fontColor=default;endArrow=none;endFill=0;" edge="1" parent="1" source="VjrMN6myHZ9YJszXmR57-342" target="VjrMN6myHZ9YJszXmR57-381">
          <mxGeometry relative="1" as="geometry" />
        </mxCell>
        <mxCell id="VjrMN6myHZ9YJszXmR57-342" value="" style="rounded=0;whiteSpace=wrap;html=1;fillColor=#7EA6E0;strokeColor=#7EA6E0;movable=1;resizable=1;rotatable=1;deletable=1;editable=1;locked=0;connectable=1;rotation=0;" vertex="1" parent="1">
          <mxGeometry x="99.99564434701784" y="471.99923788646686" width="60" height="28" as="geometry" />
        </mxCell>
        <mxCell id="VjrMN6myHZ9YJszXmR57-344" value="" style="rounded=0;whiteSpace=wrap;html=1;fillColor=#7EA6E0;strokeColor=#7EA6E0;movable=1;resizable=1;rotatable=1;deletable=1;editable=1;locked=0;connectable=1;rotation=0;" vertex="1" parent="1">
          <mxGeometry x="99.99564434701784" y="389.99923788646686" width="60" height="28" as="geometry" />
        </mxCell>
        <mxCell id="VjrMN6myHZ9YJszXmR57-381" value="" style="rounded=0;whiteSpace=wrap;html=1;fillColor=#7EA6E0;strokeColor=#7EA6E0;movable=1;resizable=1;rotatable=1;deletable=1;editable=1;locked=0;connectable=1;rotation=0;" vertex="1" parent="1">
          <mxGeometry x="319.9956443470178" y="471.99923788646686" width="60" height="28" as="geometry" />
        </mxCell>
        <mxCell id="VjrMN6myHZ9YJszXmR57-382" value="" style="rounded=0;whiteSpace=wrap;html=1;fillColor=#7EA6E0;strokeColor=#7EA6E0;movable=1;resizable=1;rotatable=1;deletable=1;editable=1;locked=0;connectable=1;rotation=0;" vertex="1" parent="1">
          <mxGeometry x="319.9956443470178" y="389.99923788646686" width="60" height="28" as="geometry" />
        </mxCell>
      </root>
    </mxGraphModel>
  </diagram>
</mxfile>
